<svg width="96" height="96" viewBox="0 0 96 96" fill="none" xmlns="http://www.w3.org/2000/svg">
<g clip-path="url(#clip0_2_207)">
<path d="M17.5185 47.464C15.7509 47.3037 14.0055 47.104 12.2858 46.9039C8.9199 46.5121 6.23043 43.8207 5.85584 40.4528C5.4223 36.5549 5 32.5255 5 28.4022L5.00123 28.0158C5.06746 17.525 14.3105 8.96846 24.6429 9.0001C28.0591 9.02101 31.3115 10.0272 34.1268 11.7401C35.1444 11.4722 36.1908 11.2799 37.2598 11.17C40.9213 10.7934 44.6433 10.5302 48.4145 10.5302C52.1857 10.5302 55.9077 10.7934 59.5692 11.17C60.6382 11.2799 61.6846 11.4722 62.7022 11.7401C65.799 9.85604 69.2801 8.98909 72.8831 9.0001C83.0486 9.0622 91.7638 17.8501 91.8276 28.0158L91.829 28.4022C91.829 32.5255 91.4066 36.5549 90.973 40.4528C90.5983 43.8207 87.9089 46.5121 84.5431 46.9039C82.8234 47.104 81.0784 47.3037 79.3102 47.464C79.2456 51.4703 79.0239 56.1296 78.7306 60.8928C77.8999 74.4103 67.2656 85.9973 53.7452 86.7811C51.9801 86.8835 50.2029 86.9432 48.4145 86.9432C46.6261 86.9432 44.8489 86.8835 43.0838 86.7811C29.5634 85.9973 18.9289 74.4103 18.098 60.8928C17.8053 56.1296 17.5836 51.4703 17.5185 47.464Z" stroke="black" stroke-width="10" stroke-linejoin="round"/>
<path d="M46.2202 66.2607H50.6088" stroke="black" stroke-width="10" stroke-linecap="round" stroke-linejoin="round"/>
<path d="M17.4981 47.4777C20.2802 47.4777 23.0075 47.2098 25.6613 46.904C29.0276 46.516 31.7252 43.802 32.082 40.4323C32.3734 37.6803 32.6274 34.8507 32.6274 31.9634" stroke="black" stroke-width="10" stroke-linecap="round"/>
<path d="M79.3312 47.4777C76.5485 47.4777 73.8212 47.2098 71.1676 46.904C67.8014 46.516 65.1039 43.802 64.747 40.4323C64.4556 37.6803 64.2016 34.8507 64.2016 31.9634" stroke="black" stroke-width="10" stroke-linecap="round"/>
</g>
<defs>
<clipPath id="clip0_2_207">
<rect width="96" height="96" fill="white"/>
</clipPath>
</defs>
</svg>
