<svg width="970" height="970" viewBox="0 0 970 970" fill="none" xmlns="http://www.w3.org/2000/svg">
<rect x="74" y="74" width="822" height="822" rx="214" stroke="white" stroke-width="20"/>
<mask id="mask0_4_90" style="ma***REMOVED***type:luminance" maskUnits="userSpaceOnUse" x="192" y="289" width="586" height="392">
<path d="M192 289.667H778V680.333H192V289.667Z" fill="white"/>
</mask>
<g mask="url(#mask0_4_90)">
<path d="M740.887 301.387C740.887 308.223 746.747 313.107 752.607 313.107H764.327C771.163 313.107 776.047 307.247 776.047 301.387C776.047 294.55 770.187 289.667 764.327 289.667H752.607C746.747 289.667 740.887 295.527 740.887 301.387ZM387.333 680.333H446.91L429.33 662.753C424.447 657.87 418.587 655.917 411.75 655.917H387.333C292.597 655.917 216.417 579.737 216.417 485C216.417 390.263 292.597 314.083 387.333 314.083H582.667C677.403 314.083 753.583 390.263 753.583 485C753.583 579.737 677.403 655.917 582.667 655.917H509.417C499.65 655.917 490.86 652.01 483.047 645.173L462.537 624.663C451.793 613.92 436.167 607.083 420.54 607.083H387.333C319.943 607.083 265.25 552.39 265.25 485C265.25 417.61 319.943 362.917 387.333 362.917H582.667C650.057 362.917 704.75 417.61 704.75 485C704.75 552.39 650.057 607.083 582.667 607.083H535.787C526.02 607.083 517.23 603.177 509.417 596.34L488.907 575.83C477.187 564.11 461.56 558.25 445.933 558.25H387.333C347.29 558.25 314.083 525.043 314.083 485C314.083 444.957 347.29 411.75 387.333 411.75H582.667C622.71 411.75 655.917 444.957 655.917 485C655.917 525.043 623.687 557.273 584.62 558.25H567.04C557.273 558.25 548.483 554.343 540.67 547.507L520.16 526.997C510.393 517.23 498.673 511.37 485.977 509.417H387.333C373.66 509.417 362.917 498.673 362.917 485C362.917 471.327 373.66 460.583 387.333 460.583H582.667C596.34 460.583 607.083 471.327 607.083 485C607.083 498.673 596.34 509.417 582.667 509.417H533.833L551.413 526.997C556.297 531.88 562.157 533.833 568.993 533.833H582.667C610.013 533.833 631.5 512.347 631.5 485C631.5 457.653 610.013 436.167 582.667 436.167H387.333C359.987 436.167 338.5 457.653 338.5 485C338.5 512.347 359.987 533.833 387.333 533.833H477.187C486.953 533.833 495.743 537.74 503.557 544.577L524.067 565.087C535.787 576.807 551.413 582.667 567.04 582.667H589.503C640.29 579.737 681.31 536.763 681.31 485C681.31 431.283 637.36 387.333 583.643 387.333H387.333C333.617 387.333 289.667 431.283 289.667 485C289.667 538.717 333.617 582.667 387.333 582.667H446.91C456.677 582.667 465.467 586.573 473.28 593.41L493.79 613.92C505.51 625.64 521.137 631.5 536.763 631.5H582.667C663.73 631.5 729.167 566.063 729.167 485C729.167 403.937 663.73 338.5 582.667 338.5H387.333C306.27 338.5 240.833 403.937 240.833 485C240.833 566.063 306.27 631.5 387.333 631.5H420.54C430.307 631.5 439.097 635.407 446.91 642.243L467.42 662.753C479.14 674.473 494.767 680.333 510.393 680.333H582.667C690.1 680.333 778 592.433 778 485C778 377.567 690.1 289.667 582.667 289.667H387.333C279.9 289.667 192 377.567 192 485C192 592.433 279.9 680.333 387.333 680.333Z" fill="white"/>
</g>
</svg>
