<svg width="128" height="128" viewBox="0 0 128 128" fill="none" xmlns="http://www.w3.org/2000/svg">
<g clip-path="url(#clip0_3002_3885)">
<path d="M18.693 56.9883C18.693 32.2539 39.0322 12.2029 64.1219 12.2029C72.6015 12.2029 80.5389 14.4933 87.3315 18.4809C90.68 20.4466 92.0785 24.7065 89.3849 27.4832C88.9881 27.8921 88.5471 28.2912 88.0574 28.6663C85.6922 30.4783 82.4752 29.6083 79.8387 28.2062C75.1614 25.719 69.8089 24.3071 64.1219 24.3071C45.8131 24.3071 30.9711 38.9391 30.9711 56.9883V71.5136C30.9711 87.9179 43.2311 101.499 59.2107 103.839C62.894 110.247 59.2107 116.04 59.2107 116.04C36.4307 113.626 18.693 94.6119 18.693 71.5136V56.9883Z" fill="black"/>
<path d="M95.1081 30.4508C97.5768 28.7712 100.68 30.2337 102.308 32.7173C106.891 39.7105 109.551 48.0431 109.551 56.9884V71.5136C109.551 94.6119 91.8132 113.626 69.0332 116.04C69.0332 116.04 65.3499 111.457 69.0332 103.839C85.0128 101.499 97.2728 87.918 97.2728 71.5136V56.9884C97.2728 51.2741 95.7853 45.9024 93.1709 41.2291C91.8093 38.7954 90.8829 35.8737 92.3055 33.474C93.1287 32.0849 94.1236 31.1205 95.1081 30.4508Z" fill="black"/>
<path d="M64.1223 31.5692C49.8823 31.5692 38.3385 42.9498 38.3385 56.988C38.3385 58.5121 39.0751 59.9743 40.5418 60.4558C42.2866 61.0286 44.9864 61.4238 48.3468 60.3361C49.7765 59.873 50.6163 58.4719 50.6163 56.988C50.6163 49.6347 56.6632 43.6734 64.1223 43.6734C71.5814 43.6734 77.6283 49.6347 77.6283 56.988V71.5132C77.6283 78.8666 71.5814 84.8278 64.1223 84.8278C56.6632 84.8278 50.6163 78.8666 50.6163 71.5132C50.6163 70.0676 49.6808 68.7554 48.2465 68.4529C45.0159 67.7718 42.4037 68.0038 40.6739 68.366C39.202 68.6746 38.3385 70.0297 38.3385 71.5132C38.3385 85.5517 49.8823 96.932 64.1223 96.932C78.3623 96.932 89.9062 85.5517 89.9062 71.5132V56.988C89.9062 42.9498 78.3623 31.5692 64.1223 31.5692Z" fill="black"/>
<path d="M64.1223 50.9359C67.5129 50.9359 70.2613 53.6458 70.2613 56.988V71.5133C70.2613 74.8555 67.5129 77.5654 64.1223 77.5654C60.7317 77.5654 57.9832 74.8555 57.9832 71.5133V56.988C57.9832 53.6458 60.7317 50.9359 64.1223 50.9359Z" fill="black"/>
</g>
<defs>
<clipPath id="clip0_3002_3885">
<rect width="128" height="128" rx="4" fill="white"/>
</clipPath>
</defs>
</svg>
