<svg width="96" height="96" viewBox="0 0 96 96" fill="none" xmlns="http://www.w3.org/2000/svg">
<rect x="4.5" y="4.5" width="87" height="87" rx="19.5" stroke="black" stroke-width="3"/>
<mask id="mask0_22_160" style="ma***REMOVED***type:luminance" maskUnits="userSpaceOnUse" x="12" y="24" width="72" height="48">
<path d="M12 24H84.0001V72.0001H12V24Z" fill="white"/>
</mask>
<g mask="url(#mask0_22_160)">
<path d="M79.4401 25.44C79.4401 26.28 80.1601 26.88 80.8801 26.88H82.3201C83.1601 26.88 83.7601 26.16 83.7601 25.44C83.7601 24.6 83.0401 24 82.3201 24H80.8801C80.1601 24 79.4401 24.72 79.4401 25.44ZM36 72.0001H43.32L41.16 69.8401C40.56 69.2401 39.84 69.0001 39 69.0001H36C24.36 69.0001 15 59.64 15 48C15 36.36 24.36 27 36 27H60.0001C71.6401 27 81.0001 36.36 81.0001 48C81.0001 59.64 71.6401 69.0001 60.0001 69.0001H51C49.8 69.0001 48.72 68.5201 47.76 67.6801L45.24 65.1601C43.92 63.8401 42 63 40.08 63H36C27.72 63 21 56.28 21 48C21 39.72 27.72 33 36 33H60.0001C68.2801 33 75.0001 39.72 75.0001 48C75.0001 56.28 68.2801 63 60.0001 63H54.24C53.04 63 51.96 62.52 51 61.68L48.48 59.16C47.04 57.72 45.12 57 43.2 57H36C31.08 57 27 52.92 27 48C27 43.08 31.08 39 36 39H60.0001C64.9201 39 69.0001 43.08 69.0001 48C69.0001 52.92 65.0401 56.88 60.2401 57H58.0801C56.8801 57 55.8001 56.52 54.84 55.68L52.32 53.16C51.12 51.96 49.68 51.24 48.12 51H36C34.32 51 33 49.68 33 48C33 46.32 34.32 45 36 45H60.0001C61.6801 45 63.0001 46.32 63.0001 48C63.0001 49.68 61.6801 51 60.0001 51H54.0001L56.1601 53.16C56.7601 53.76 57.4801 54 58.3201 54H60.0001C63.3601 54 66.0001 51.36 66.0001 48C66.0001 44.64 63.3601 42 60.0001 42H36C32.64 42 30 44.64 30 48C30 51.36 32.64 54 36 54H47.04C48.24 54 49.32 54.48 50.28 55.32L52.8001 57.84C54.2401 59.28 56.1601 60 58.0801 60H60.8401C67.0801 59.64 72.1201 54.36 72.1201 48C72.1201 41.4 66.7201 36 60.1201 36H36C29.4 36 24 41.4 24 48C24 54.6 29.4 60 36 60H43.32C44.52 60 45.6 60.48 46.56 61.32L49.08 63.84C50.52 65.28 52.4401 66.0001 54.3601 66.0001H60.0001C69.9601 66.0001 78.0001 57.96 78.0001 48C78.0001 38.04 69.9601 30 60.0001 30H36C26.04 30 18 38.04 18 48C18 57.96 26.04 66.0001 36 66.0001H40.08C41.28 66.0001 42.36 66.4801 43.32 67.3201L45.84 69.8401C47.28 71.2801 49.2 72.0001 51.12 72.0001H60.0001C73.2001 72.0001 84.0001 61.2 84.0001 48C84.0001 34.8 73.2001 24 60.0001 24H36C22.8 24 12 34.8 12 48C12 61.2 22.8 72.0001 36 72.0001Z" fill="#1B1B1D"/>
</g>
</svg>
